<svg display="none">
    <defs>
        <g id="more">
            <path d="m64 192c-34 0-64 30-64 64 0 34 30 64 64 64 34 0 64-30 64-64 0-34-30-64-64-64z m384 0c-34 0-64 30-64 64 0 34 30 64 64 64 34 0 64-30 64-64 0-34-30-64-64-64z m-192 0c-34 0-64 30-64 64 0 34 30 64 64 64 34 0 64-30 64-64 0-34-30-64-64-64z"/>
        </g>
        <g id="facebook">
            <path d="m292 503l0-226 77 0 13-89-85 0 0-56c0-25 8-42 42-42l47 0 0-77c-13 0-38-4-72-4-64 0-111 42-111 115l0 64-77 0 0 89 77 0 0 226z"/>
        </g>
        <g id="twitter">
            <path d="m510 91c-18 7-40 14-58 18 22-14 40-36 47-62-22 15-44 22-65 26-18-22-47-36-76-36-62 3-109 54-109 112 0 7 0 18 3 25-83-3-163-47-214-116-10 18-14 37-14 58 0 37 18 69 47 91-18 0-33-7-47-14 0 50 33 94 83 108-11 4-18 4-29 4-7 0-14 0-18-4 11 47 51 77 98 80-36 29-83 47-130 47-8 0-19 0-26-3 47 32 102 50 160 50 192 0 297-166 297-311 0-4 0-11 0-15 18-18 36-36 51-58z"/>
        </g>
        <g id="up">
            <path d="m496 341l-189-225c-31-27-63-27-94 0l-197 225c-16 15-12 43 4 55 15 16 39 12 55-4l185-209 177 209c16 16 40 20 55 4 20-12 20-40 4-55z"/>
        </g>
        <g id="down">
            <path d="m492 108c-15-15-43-12-55 4l-177 213-185-209c-16-16-40-20-55-4-16 12-20 40-4 55l197 225c31 31 63 27 94 0l189-225c16-15 16-43-4-59z"/>
        </g>
        <g id="favorite">
            <path d="M3.612 15.443c-.386.198-.824-.149-.746-.592l.83-4.73L.173 6.765c-.329-.314-.158-.888.283-.95l4.898-.696L7.538.792c.197-.39.73-.39.927 0l2.184 4.327 4.898.696c.441.062.612.636.283.95l-3.523 3.356.83 4.73c.078.443-.36.79-.746.592L8 13.187l-4.389 2.256z"/>
        </g>
        <g id="person">
            <path fill-rule="evenodd" d="M13 14s1 0 1-1-1-4-6-4-6 3-6 4 1 1 1 1h10zm-9.995-.944v-.002.002zM3.022 13h9.956a.274.274 0 00.014-.002l.008-.002c-.001-.246-.154-.986-.832-1.664C11.516 10.68 10.289 10 8 10c-2.29 0-3.516.68-4.168 1.332-.678.678-.83 1.418-.832 1.664a1.05 1.05 0 00.022.004zm9.974.056v-.002.002zM8 7a2 2 0 100-4 2 2 0 000 4zm3-2a3 3 0 11-6 0 3 3 0 016 0z" clip-rule="evenodd"/>
        </g>
        <g id="chat">
            <path fill-rule="evenodd" d="M14 1H2a1 1 0 00-1 1v8a1 1 0 001 1h2.5a2 2 0 011.6.8L8 14.333 9.9 11.8a2 2 0 011.6-.8H14a1 1 0 001-1V2a1 1 0 00-1-1zM2 0a2 2 0 00-2 2v8a2 2 0 002 2h2.5a1 1 0 01.8.4l1.9 2.533a1 1 0 001.6 0l1.9-2.533a1 1 0 01.8-.4H14a2 2 0 002-2V2a2 2 0 00-2-2H2z" clip-rule="evenodd"/>
        </g>
        <g id="bell">
            <path fill-rule="evenodd" d="M8 12l5 3V3a2 2 0 00-2-2H5a2 2 0 00-2 2v12l5-3zm-4 1.234l4-2.4 4 2.4V3a1 1 0 00-1-1H5a1 1 0 00-1 1v10.234z" clip-rule="evenodd"/>
        </g>
        <g id="search">
            <path fill="white" fill-rule="evenodd" d="M15.7 13.3l-3.81-3.83A5.93 5.93 0 0013 6c0-3.31-2.69-6-6-6S1 2.69 1 6s2.69 6 6 6c1.3 0 2.48-.41 3.47-1.11l3.83 3.81c.19.2.45.3.7.3.25 0 .52-.09.7-.3a.996.996 0 000-1.41v.01zM7 10.7c-2.59 0-4.7-2.11-4.7-4.7 0-2.59 2.11-4.7 4.7-4.7 2.59 0 4.7 2.11 4.7 4.7 0 2.59-2.11 4.7-4.7 4.7z"/>
        </g>
        <g id="msgsent">
            <path fill-rule="evenodd" d="M13.854 3.646a.5.5 0 010 .708l-7 7a.5.5 0 01-.708 0l-3.5-3.5a.5.5 0 11.708-.708L6.5 10.293l6.646-6.647a.5.5 0 01.708 0z" clip-rule="evenodd"/>
        </g>
        <g id="msgread">
            <path fill-rule="evenodd" d="M12.354 3.646a.5.5 0 010 .708l-7 7a.5.5 0 01-.708 0l-3.5-3.5a.5.5 0 11.708-.708L5 10.293l6.646-6.647a.5.5 0 01.708 0z" clip-rule="evenodd"/>
            <path d="M6.25 8.043l-.896-.897a.5.5 0 10-.708.708l.897.896.707-.707zm1 2.414l.896.897a.5.5 0 00.708 0l7-7a.5.5 0 00-.708-.708L8.5 10.293l-.543-.543-.707.707z"/>
        </g>
        <g id="arrow-left">
            <path fill-rule="evenodd" d="M6 3.5c3.92.44 8 3.125 8 10-2.312-5.062-4.75-6-8-6V11L.5 5.5 6 0v3.5z"/>
        </g>
        <g id="loading">
            <path fill-rule="evenodd" d="M3.17 6.706a5 5 0 017.103-3.16.5.5 0 10.454-.892A6 6 0 1013.455 5.5a.5.5 0 00-.91.417 5 5 0 11-9.375.789z" clip-rule="evenodd"/>
            <path fill-rule="evenodd" d="M8.147.146a.5.5 0 01.707 0l2.5 2.5a.5.5 0 010 .708l-2.5 2.5a.5.5 0 11-.707-.708L10.293 3 8.147.854a.5.5 0 010-.708z" clip-rule="evenodd"/>
        </g>
        <g id="cog">
            <path fill-rule="evenodd" d="M9.405 1.05c-.413-1.4-2.397-1.4-2.81 0l-.1.34a1.464 1.464 0 01-2.105.872l-.31-.17c-1.283-.698-2.686.705-1.987 1.987l.169.311c.446.82.023 1.841-.872 2.105l-.34.1c-1.4.413-1.4 2.397 0 2.81l.34.1a1.464 1.464 0 01.872 2.105l-.17.31c-.698 1.283.705 2.686 1.987 1.987l.311-.169a1.464 1.464 0 012.105.872l.1.34c.413 1.4 2.397 1.4 2.81 0l.1-.34a1.464 1.464 0 012.105-.872l.31.17c1.283.698 2.686-.705 1.987-1.987l-.169-.311a1.464 1.464 0 01.872-2.105l.34-.1c1.4-.413 1.4-2.397 0-2.81l-.34-.1a1.464 1.464 0 01-.872-2.105l.17-.31c.698-1.283-.705-2.686-1.987-1.987l-.311.169a1.464 1.464 0 01-2.105-.872l-.1-.34zM8 10.93a2.929 2.929 0 100-5.86 2.929 2.929 0 000 5.858z" clip-rule="evenodd"/>
        </g>
    </defs>
</svg>