<svg display="none">
    <defs>
        <g id="more">
            <path d="m64 192c-34 0-64 30-64 64 0 34 30 64 64 64 34 0 64-30 64-64 0-34-30-64-64-64z m384 0c-34 0-64 30-64 64 0 34 30 64 64 64 34 0 64-30 64-64 0-34-30-64-64-64z m-192 0c-34 0-64 30-64 64 0 34 30 64 64 64 34 0 64-30 64-64 0-34-30-64-64-64z"/>
        </g>
        <g id="facebook">
            <path d="m292 503l0-226 77 0 13-89-85 0 0-56c0-25 8-42 42-42l47 0 0-77c-13 0-38-4-72-4-64 0-111 42-111 115l0 64-77 0 0 89 77 0 0 226z"/>
        </g>
        <g id="twitter">
            <path d="m510 91c-18 7-40 14-58 18 22-14 40-36 47-62-22 15-44 22-65 26-18-22-47-36-76-36-62 3-109 54-109 112 0 7 0 18 3 25-83-3-163-47-214-116-10 18-14 37-14 58 0 37 18 69 47 91-18 0-33-7-47-14 0 50 33 94 83 108-11 4-18 4-29 4-7 0-14 0-18-4 11 47 51 77 98 80-36 29-83 47-130 47-8 0-19 0-26-3 47 32 102 50 160 50 192 0 297-166 297-311 0-4 0-11 0-15 18-18 36-36 51-58z"/>
        </g>
        <g id="up">
            <path d="m496 341l-189-225c-31-27-63-27-94 0l-197 225c-16 15-12 43 4 55 15 16 39 12 55-4l185-209 177 209c16 16 40 20 55 4 20-12 20-40 4-55z"/>
        </g>
        <g id="down">
            <path d="m492 108c-15-15-43-12-55 4l-177 213-185-209c-16-16-40-20-55-4-16 12-20 40-4 55l197 225c31 31 63 27 94 0l189-225c16-15 16-43-4-59z"/>
        </g>
        <g id="favorite">
            <path d="M3.612 15.443c-.386.198-.824-.149-.746-.592l.83-4.73L.173 6.765c-.329-.314-.158-.888.283-.95l4.898-.696L7.538.792c.197-.39.73-.39.927 0l2.184 4.327 4.898.696c.441.062.612.636.283.95l-3.523 3.356.83 4.73c.078.443-.36.79-.746.592L8 13.187l-4.389 2.256z"/>
        </g>
        <g id="person">
            <path fill-rule="evenodd" d="M13 14s1 0 1-1-1-4-6-4-6 3-6 4 1 1 1 1h10zm-9.995-.944v-.002.002zM3.022 13h9.956a.274.274 0 00.014-.002l.008-.002c-.001-.246-.154-.986-.832-1.664C11.516 10.68 10.289 10 8 10c-2.29 0-3.516.68-4.168 1.332-.678.678-.83 1.418-.832 1.664a1.05 1.05 0 00.022.004zm9.974.056v-.002.002zM8 7a2 2 0 100-4 2 2 0 000 4zm3-2a3 3 0 11-6 0 3 3 0 016 0z" clip-rule="evenodd"/>
        </g>
        <g id="chat">
            <path fill-rule="evenodd" d="M3.25 4a.25.25 0 00-.25.25v12.5c0 .138.112.25.25.25h2.5a.75.75 0 01.75.75v3.19l3.72-3.72a.75.75 0 01.53-.22h10a.25.25 0 00.25-.25V4.25a.25.25 0 00-.25-.25H3.25zm-1.75.25c0-.966.784-1.75 1.75-1.75h17.5c.966 0 1.75.784 1.75 1.75v12.5a1.75 1.75 0 01-1.75 1.75h-9.69l-3.573 3.573A1.457 1.457 0 015 21.043V18.5H3.25a1.75 1.75 0 01-1.75-1.75V4.25z" />
        </g>
        <g id="bell">
            <path fill-rule="evenodd" d="M8 12l5 3V3a2 2 0 00-2-2H5a2 2 0 00-2 2v12l5-3zm-4 1.234l4-2.4 4 2.4V3a1 1 0 00-1-1H5a1 1 0 00-1 1v10.234z" clip-rule="evenodd"/>
        </g>
        <g id="search">
            <path fill-rule="evenodd" d="M15.7 13.3l-3.81-3.83A5.93 5.93 0 0013 6c0-3.31-2.69-6-6-6S1 2.69 1 6s2.69 6 6 6c1.3 0 2.48-.41 3.47-1.11l3.83 3.81c.19.2.45.3.7.3.25 0 .52-.09.7-.3a.996.996 0 000-1.41v.01zM7 10.7c-2.59 0-4.7-2.11-4.7-4.7 0-2.59 2.11-4.7 4.7-4.7 2.59 0 4.7 2.11 4.7 4.7 0 2.59-2.11 4.7-4.7 4.7z"/>
        </g>
        <g id="msgsent">
            <path fill-rule="evenodd" d="M13.854 3.646a.5.5 0 010 .708l-7 7a.5.5 0 01-.708 0l-3.5-3.5a.5.5 0 11.708-.708L6.5 10.293l6.646-6.647a.5.5 0 01.708 0z" clip-rule="evenodd"/>
        </g>
        <g id="msgread">
            <path fill-rule="evenodd" d="M12.354 3.646a.5.5 0 010 .708l-7 7a.5.5 0 01-.708 0l-3.5-3.5a.5.5 0 11.708-.708L5 10.293l6.646-6.647a.5.5 0 01.708 0z" clip-rule="evenodd"/>
            <path d="M6.25 8.043l-.896-.897a.5.5 0 10-.708.708l.897.896.707-.707zm1 2.414l.896.897a.5.5 0 00.708 0l7-7a.5.5 0 00-.708-.708L8.5 10.293l-.543-.543-.707.707z"/>
        </g>
        <g id="arrow-left">
            <path fill-rule="evenodd" d="M6 3.5c3.92.44 8 3.125 8 10-2.312-5.062-4.75-6-8-6V11L.5 5.5 6 0v3.5z"/>
        </g>
        <g id="loading">
            <path fill-rule="evenodd" d="M3.17 6.706a5 5 0 017.103-3.16.5.5 0 10.454-.892A6 6 0 1013.455 5.5a.5.5 0 00-.91.417 5 5 0 11-9.375.789z" clip-rule="evenodd"/>
            <path fill-rule="evenodd" d="M8.147.146a.5.5 0 01.707 0l2.5 2.5a.5.5 0 010 .708l-2.5 2.5a.5.5 0 11-.707-.708L10.293 3 8.147.854a.5.5 0 010-.708z" clip-rule="evenodd"/>
        </g>
        <g id="cog">
            <path fill-rule="evenodd" d="M9.405 1.05c-.413-1.4-2.397-1.4-2.81 0l-.1.34a1.464 1.464 0 01-2.105.872l-.31-.17c-1.283-.698-2.686.705-1.987 1.987l.169.311c.446.82.023 1.841-.872 2.105l-.34.1c-1.4.413-1.4 2.397 0 2.81l.34.1a1.464 1.464 0 01.872 2.105l-.17.31c-.698 1.283.705 2.686 1.987 1.987l.311-.169a1.464 1.464 0 012.105.872l.1.34c.413 1.4 2.397 1.4 2.81 0l.1-.34a1.464 1.464 0 012.105-.872l.31.17c1.283.698 2.686-.705 1.987-1.987l-.169-.311a1.464 1.464 0 01.872-2.105l.34-.1c1.4-.413 1.4-2.397 0-2.81l-.34-.1a1.464 1.464 0 01-.872-2.105l.17-.31c.698-1.283-.705-2.686-1.987-1.987l-.311.169a1.464 1.464 0 01-2.105-.872l-.1-.34zM8 10.93a2.929 2.929 0 100-5.86 2.929 2.929 0 000 5.858z" clip-rule="evenodd"/>
        </g>
        <g id="pin">
            <path fill-rule="evenodd" d="M4.456.734a1.75 1.75 0 012.826.504l.613 1.327a3.081 3.081 0 002.084 1.707l2.454.584c1.332.317 1.8 1.972.832 2.94L11.06 10l3.72 3.72a.75.75 0 11-1.061 1.06L10 11.06l-2.204 2.205c-.968.968-2.623.5-2.94-.832l-.584-2.454a3.081 3.081 0 00-1.707-2.084l-1.327-.613a1.75 1.75 0 01-.504-2.826L4.456.734zM5.92 1.866a.25.25 0 00-.404-.072L1.794 5.516a.25.25 0 00.072.404l1.328.613A4.582 4.582 0 015.73 9.63l.584 2.454a.25.25 0 00.42.12l5.47-5.47a.25.25 0 00-.12-.42L9.63 5.73a4.581 4.581 0 01-3.098-2.537L5.92 1.866z"/>
        </g>
        <g id="trash">
            <path fill-rule="evenodd" d="M6.5 1.75a.25.25 0 01.25-.25h2.5a.25.25 0 01.25.25V3h-3V1.75zm4.5 0V3h2.25a.75.75 0 010 1.5H2.75a.75.75 0 010-1.5H5V1.75C5 .784 5.784 0 6.75 0h2.5C10.216 0 11 .784 11 1.75zM4.496 6.675a.75.75 0 10-1.492.15l.66 6.6A1.75 1.75 0 005.405 15h5.19c.9 0 1.652-.681 1.741-1.576l.66-6.6a.75.75 0 00-1.492-.149l-.66 6.6a.25.25 0 01-.249.225h-5.19a.25.25 0 01-.249-.225l-.66-6.6z"/>
        </g>
        <g id="archive">
            <path fill-rule="evenodd" d="M1.75 2.5a.25.25 0 00-.25.25v1.5c0 .138.112.25.25.25h12.5a.25.25 0 00.25-.25v-1.5a.25.25 0 00-.25-.25H1.75zM0 2.75C0 1.784.784 1 1.75 1h12.5c.966 0 1.75.784 1.75 1.75v1.5A1.75 1.75 0 0114.25 6H1.75A1.75 1.75 0 010 4.25v-1.5zM1.75 7a.75.75 0 01.75.75v5.5c0 .138.112.25.25.25h10.5a.25.25 0 00.25-.25v-5.5a.75.75 0 111.5 0v5.5A1.75 1.75 0 0113.25 15H2.75A1.75 1.75 0 011 13.25v-5.5A.75.75 0 011.75 7zm4.5 1a.75.75 0 000 1.5h3.5a.75.75 0 100-1.5h-3.5z"/>
        </g>
        <g id="layers">
            <path d="M4 12v2.5A1.5 1.5 0 0 0 5.5 16h9a1.5 1.5 0 0 0 1.5-1.5v-9A1.5 1.5 0 0 0 14.5 4H12v6.5a1.5 1.5 0 0 1-1.5 1.5H4z"/>
            <path fill-rule="evenodd" d="M10.5 1h-9a.5.5 0 0 0-.5.5v9a.5.5 0 0 0 .5.5h9a.5.5 0 0 0 .5-.5v-9a.5.5 0 0 0-.5-.5zm-9-1A1.5 1.5 0 0 0 0 1.5v9A1.5 1.5 0 0 0 1.5 12h9a1.5 1.5 0 0 0 1.5-1.5v-9A1.5 1.5 0 0 0 10.5 0h-9z"/>
        </g>
        <g id="saved">
            <path fill-rule="evenodd" d="M5.962 2.513a.75.75 0 01-.475.949l-.816.272a.25.25 0 00-.171.237V21.25c0 .138.112.25.25.25h14.5a.25.25 0 00.25-.25V3.97a.25.25 0 00-.17-.236l-.817-.272a.75.75 0 01.474-1.424l.816.273A1.75 1.75 0 0121 3.97v17.28A1.75 1.75 0 0119.25 23H4.75A1.75 1.75 0 013 21.25V3.97a1.75 1.75 0 011.197-1.66l.816-.272a.75.75 0 01.949.475z"/>
            <path fill-rule="evenodd" d="M7 1.75C7 .784 7.784 0 8.75 0h6.5C16.216 0 17 .784 17 1.75v1.5A1.75 1.75 0 0115.25 5h-6.5A1.75 1.75 0 017 3.25v-1.5zm1.75-.25a.25.25 0 00-.25.25v1.5c0 .138.112.25.25.25h6.5a.25.25 0 00.25-.25v-1.5a.25.25 0 00-.25-.25h-6.5z"/>
        </g>
        <g id="lshift">
            <path fill-rule="evenodd" d="M2 3.5a.5.5 0 0 1 .5-.5h11a.5.5 0 0 1 0 1h-11a.5.5 0 0 1-.5-.5zm10.646 2.146a.5.5 0 0 1 .708.708L11.707 8l1.647 1.646a.5.5 0 0 1-.708.708l-2-2a.5.5 0 0 1 0-.708l2-2zM2 6.5a.5.5 0 0 1 .5-.5h6a.5.5 0 0 1 0 1h-6a.5.5 0 0 1-.5-.5zm0 3a.5.5 0 0 1 .5-.5h6a.5.5 0 0 1 0 1h-6a.5.5 0 0 1-.5-.5zm0 3a.5.5 0 0 1 .5-.5h11a.5.5 0 0 1 0 1h-11a.5.5 0 0 1-.5-.5z"/>
        </g>
        <g id="moon">
            <path fill-rule="evenodd" d="M9.598 1.591a.75.75 0 01.785-.175 7 7 0 11-8.967 8.967.75.75 0 01.961-.96 5.5 5.5 0 007.046-7.046.75.75 0 01.175-.786zm1.616 1.945a7 7 0 01-7.678 7.678 5.5 5.5 0 107.678-7.678z" />
        </g>
        <g id="sun">
            <path fill-rule="evenodd" d="M8 10.5a2.5 2.5 0 100-5 2.5 2.5 0 000 5zM8 12a4 4 0 100-8 4 4 0 000 8zM8 0a.75.75 0 01.75.75v1.5a.75.75 0 01-1.5 0V.75A.75.75 0 018 0zm0 13a.75.75 0 01.75.75v1.5a.75.75 0 01-1.5 0v-1.5A.75.75 0 018 13zM2.343 2.343a.75.75 0 011.061 0l1.06 1.061a.75.75 0 01-1.06 1.06l-1.06-1.06a.75.75 0 010-1.06zm9.193 9.193a.75.75 0 011.06 0l1.061 1.06a.75.75 0 01-1.06 1.061l-1.061-1.06a.75.75 0 010-1.061zM16 8a.75.75 0 01-.75.75h-1.5a.75.75 0 010-1.5h1.5A.75.75 0 0116 8zM3 8a.75.75 0 01-.75.75H.75a.75.75 0 010-1.5h1.5A.75.75 0 013 8zm10.657-5.657a.75.75 0 010 1.061l-1.061 1.06a.75.75 0 11-1.06-1.06l1.06-1.06a.75.75 0 011.06 0zm-9.193 9.193a.75.75 0 010 1.06l-1.06 1.061a.75.75 0 11-1.061-1.06l1.06-1.061a.75.75 0 011.061 0z" />
        </g>
        <g id="edit">
            <path d="M33.7 44.12H8.5a8.41 8.41 0 01-8.5-8.5v-25.2a8.41 8.41 0 018.5-8.5H23a1.5 1.5 0 010 3H8.5a5.45 5.45 0 00-5.5 5.5v25.2a5.45 5.45 0 005.5 5.5h25.2a5.45 5.45 0 005.5-5.5v-14.5a1.5 1.5 0 013 0v14.5a8.41 8.41 0 01-8.5 8.5z"/>
            <path d="M17.5 34.82h-6.7a1.5 1.5 0 01-1.5-1.5v-6.7a1.5 1.5 0 01.44-1.06L34.1 1.26a4.45 4.45 0 016.22 0l2.5 2.5a4.45 4.45 0 010 6.22l-24.3 24.4a1.5 1.5 0 01-1.02.44zm-5.2-3h4.58l23.86-24a1.45 1.45 0 000-2l-2.5-2.5a1.45 1.45 0 00-2 0l-24 23.86z"/>
            <path d="M38.2 14.02a1.51 1.51 0 01-1.1-.44l-6.56-6.56a1.5 1.5 0 012.12-2.12l6.6 6.6a1.49 1.49 0 010 2.12 1.51 1.51 0 01-1.06.4z"/>
        </g>
        <g id="flag">
            <path fill-rule="evenodd" d="M1.75 1.5a.25.25 0 00-.25.25v9.5c0 .138.112.25.25.25h2a.75.75 0 01.75.75v2.19l2.72-2.72a.75.75 0 01.53-.22h6.5a.25.25 0 00.25-.25v-9.5a.25.25 0 00-.25-.25H1.75zM0 1.75C0 .784.784 0 1.75 0h12.5C15.216 0 16 .784 16 1.75v9.5A1.75 1.75 0 0114.25 13H8.06l-2.573 2.573A1.457 1.457 0 013 14.543V13H1.75A1.75 1.75 0 010 11.25v-9.5zM9 9a1 1 0 11-2 0 1 1 0 012 0zm-.25-5.25a.75.75 0 00-1.5 0v2.5a.75.75 0 001.5 0v-2.5z"/>
        </g>
        <g id="comment">
            <path fill-rule="evenodd" d="M1.5 2.75a.25.25 0 01.25-.25h8.5a.25.25 0 01.25.25v5.5a.25.25 0 01-.25.25h-3.5a.75.75 0 00-.53.22L3.5 11.44V9.25a.75.75 0 00-.75-.75h-1a.25.25 0 01-.25-.25v-5.5zM1.75 1A1.75 1.75 0 000 2.75v5.5C0 9.216.784 10 1.75 10H2v1.543a1.457 1.457 0 002.487 1.03L7.061 10h3.189A1.75 1.75 0 0012 8.25v-5.5A1.75 1.75 0 0010.25 1h-8.5zM14.5 4.75a.25.25 0 00-.25-.25h-.5a.75.75 0 110-1.5h.5c.966 0 1.75.784 1.75 1.75v5.5A1.75 1.75 0 0114.25 12H14v1.543a1.457 1.457 0 01-2.487 1.03L9.22 12.28a.75.75 0 111.06-1.06l2.22 2.22v-2.19a.75.75 0 01.75-.75h1a.25.25 0 00.25-.25v-5.5z"/>
        </g>
        <g id="megaphone">
            <path d="M17.223 7.03c-1.584-3.686-4.132-6.49-5.421-5.967c-2.189.891 1.304 5.164-9.447 9.533c-.929.379-1.164 1.888-.775 2.792c.388.902 1.658 1.801 2.587 1.424c.161-.066.751-.256.751-.256c.663.891 1.357.363 1.604.928l1.158 2.66c.219.502.715.967 1.075.83l2.05-.779c.468-.178.579-.596.436-.924c-.154-.355-.786-.459-.967-.873c-.18-.412-.769-1.738-.938-2.156c-.23-.568.259-1.031.97-1.104c4.894-.512 5.809 2.512 7.475 1.834c1.287-.525 1.025-4.259-.558-7.942zm-.551 5.976c-.287.115-2.213-1.402-3.443-4.267c-1.231-2.863-1.076-5.48-.79-5.597c.286-.115 2.165 1.717 3.395 4.58c1.231 2.863 1.124 5.167.838 5.284z" />
        </g>
        <g id="menu">
            <path fill-rule="evenodd" d="M1 2.75A.75.75 0 011.75 2h12.5a.75.75 0 110 1.5H1.75A.75.75 0 011 2.75zm0 5A.75.75 0 011.75 7h12.5a.75.75 0 110 1.5H1.75A.75.75 0 011 7.75zM1.75 12a.75.75 0 100 1.5h12.5a.75.75 0 100-1.5H1.75z" />
        </g>
        <g id="bookmarks">
            <path d="M2 4a2 2 0 0 1 2-2h6a2 2 0 0 1 2 2v11.5a.5.5 0 0 1-.777.416L7 13.101l-4.223 2.815A.5.5 0 0 1 2 15.5V4zm2-1a1 1 0 0 0-1 1v10.566l3.723-2.482a.5.5 0 0 1 .554 0L11 14.566V4a1 1 0 0 0-1-1H4z"/>
            <path d="M4.268 1H12a1 1 0 0 1 1 1v11.768l.223.148A.5.5 0 0 0 14 13.5V2a2 2 0 0 0-2-2H6a2 2 0 0 0-1.732 1z"/>
        </g>
        <g id="cog-border">
            <path d="M8 4.754a3.246 3.246 0 1 0 0 6.492 3.246 3.246 0 0 0 0-6.492zM5.754 8a2.246 2.246 0 1 1 4.492 0 2.246 2.246 0 0 1-4.492 0z"/>
            <path d="M9.796 1.343c-.527-1.79-3.065-1.79-3.592 0l-.094.319a.873.873 0 0 1-1.255.52l-.292-.16c-1.64-.892-3.433.902-2.54 2.541l.159.292a.873.873 0 0 1-.52 1.255l-.319.094c-1.79.527-1.79 3.065 0 3.592l.319.094a.873.873 0 0 1 .52 1.255l-.16.292c-.892 1.64.901 3.434 2.541 2.54l.292-.159a.873.873 0 0 1 1.255.52l.094.319c.527 1.79 3.065 1.79 3.592 0l.094-.319a.873.873 0 0 1 1.255-.52l.292.16c1.64.893 3.434-.902 2.54-2.541l-.159-.292a.873.873 0 0 1 .52-1.255l.319-.094c1.79-.527 1.79-3.065 0-3.592l-.319-.094a.873.873 0 0 1-.52-1.255l.16-.292c.893-1.64-.902-3.433-2.541-2.54l-.292.159a.873.873 0 0 1-1.255-.52l-.094-.319zm-2.633.283c.246-.835 1.428-.835 1.674 0l.094.319a1.873 1.873 0 0 0 2.693 1.115l.291-.16c.764-.415 1.6.42 1.184 1.185l-.159.292a1.873 1.873 0 0 0 1.116 2.692l.318.094c.835.246.835 1.428 0 1.674l-.319.094a1.873 1.873 0 0 0-1.115 2.693l.16.291c.415.764-.42 1.6-1.185 1.184l-.291-.159a1.873 1.873 0 0 0-2.693 1.116l-.094.318c-.246.835-1.428.835-1.674 0l-.094-.319a1.873 1.873 0 0 0-2.692-1.115l-.292.16c-.764.415-1.6-.42-1.184-1.185l.159-.291A1.873 1.873 0 0 0 1.945 8.93l-.319-.094c-.835-.246-.835-1.428 0-1.674l.319-.094A1.873 1.873 0 0 0 3.06 4.377l-.16-.292c-.415-.764.42-1.6 1.185-1.184l.292.159a1.873 1.873 0 0 0 2.692-1.115l.094-.319z"/>
        </g>
        <g id="images">
            <path d="M4.502 9a1.5 1.5 0 1 0 0-3 1.5 1.5 0 0 0 0 3z"/>
            <path d="M14.002 13a2 2 0 0 1-2 2h-10a2 2 0 0 1-2-2V5A2 2 0 0 1 2 3a2 2 0 0 1 2-2h10a2 2 0 0 1 2 2v8a2 2 0 0 1-1.998 2zM14 2H4a1 1 0 0 0-1 1h9.002a2 2 0 0 1 2 2v7A1 1 0 0 0 15 11V3a1 1 0 0 0-1-1zM2.002 4a1 1 0 0 0-1 1v8l2.646-2.354a.5.5 0 0 1 .63-.062l2.66 1.773 3.71-3.71a.5.5 0 0 1 .577-.094l1.777 1.947V5a1 1 0 0 0-1-1h-10z"/>
        </g>
        <g id="people">
            <path d="M15 14s1 0 1-1-1-4-5-4-5 3-5 4 1 1 1 1h8zm-7.978-1A.261.261 0 0 1 7 12.996c.001-.264.167-1.03.76-1.72C8.312 10.629 9.282 10 11 10c1.717 0 2.687.63 3.24 1.276.593.69.758 1.457.76 1.72l-.008.002a.274.274 0 0 1-.014.002H7.022zM11 7a2 2 0 1 0 0-4 2 2 0 0 0 0 4zm3-2a3 3 0 1 1-6 0 3 3 0 0 1 6 0zM6.936 9.28a5.88 5.88 0 0 0-1.23-.247A7.35 7.35 0 0 0 5 9c-4 0-5 3-5 4 0 .667.333 1 1 1h4.216A2.238 2.238 0 0 1 5 13c0-1.01.377-2.042 1.09-2.904.243-.294.526-.569.846-.816zM4.92 10A5.493 5.493 0 0 0 4 13H1c0-.26.164-1.03.76-1.724.545-.636 1.492-1.256 3.16-1.275zM1.5 5.5a3 3 0 1 1 6 0 3 3 0 0 1-6 0zm3-2a2 2 0 1 0 0 4 2 2 0 0 0 0-4z"/>
        </g>
        <g id="block">
           <path fill-rule="evenodd" d="M1.5 8a6.5 6.5 0 0110.535-5.096l-9.131 9.131A6.472 6.472 0 011.5 8zm2.465 5.096a6.5 6.5 0 009.131-9.131l-9.131 9.131zM8 0a8 8 0 100 16A8 8 0 008 0z"/>
        </g>
        <g id="logout">
            <path fill-rule="evenodd" d="M2 2.75C2 1.784 2.784 1 3.75 1h2.5a.75.75 0 010 1.5h-2.5a.25.25 0 00-.25.25v10.5c0 .138.112.25.25.25h2.5a.75.75 0 010 1.5h-2.5A1.75 1.75 0 012 13.25V2.75zm10.44 4.5H6.75a.75.75 0 000 1.5h5.69l-1.97 1.97a.75.75 0 101.06 1.06l3.25-3.25a.75.75 0 000-1.06l-3.25-3.25a.75.75 0 10-1.06 1.06l1.97 1.97z"/>
        </g>
        <g id="side-note">
            <path d="M2.5 1A1.5 1.5 0 0 0 1 2.5v11A1.5 1.5 0 0 0 2.5 15h6.086a1.5 1.5 0 0 0 1.06-.44l4.915-4.914A1.5 1.5 0 0 0 15 8.586V2.5A1.5 1.5 0 0 0 13.5 1h-11zM2 2.5a.5.5 0 0 1 .5-.5h11a.5.5 0 0 1 .5.5V8H9.5A1.5 1.5 0 0 0 8 9.5V14H2.5a.5.5 0 0 1-.5-.5v-11zm7 11.293V9.5a.5.5 0 0 1 .5-.5h4.293L9 13.793z"/>
        </g>
        <g id="experimental">
            <path fill-rule="evenodd" d="M8 8.807V3.5h-.563a.75.75 0 010-1.5h9.125a.75.75 0 010 1.5H16v5.307l5.125 9.301c.964 1.75-.302 3.892-2.299 3.892H5.174c-1.998 0-3.263-2.142-2.3-3.892L8 8.807zM14.5 3.5h-5V9a.75.75 0 01-.093.362L7.127 13.5h9.746l-2.28-4.138A.75.75 0 0114.5 9V3.5zM4.189 18.832L6.3 15h11.4l2.111 3.832a1.125 1.125 0 01-.985 1.668H5.174a1.125 1.125 0 01-.985-1.668z"/>
        </g>
        <g id="present">
            <path fill-rule="evenodd" d="M3.75 3.75c0 .844.279 1.623.75 2.25H2.75A1.75 1.75 0 001 7.75v2.5c0 .698.409 1.3 1 1.582v8.418c0 .966.784 1.75 1.75 1.75h16.5A1.75 1.75 0 0022 20.25v-8.418c.591-.281 1-.884 1-1.582v-2.5A1.75 1.75 0 0021.25 6H19.5a3.75 3.75 0 00-3-6c-1.456 0-3.436.901-4.5 3.11C10.936.901 8.955 0 7.5 0a3.75 3.75 0 00-3.75 3.75zM11.22 6c-.287-3.493-2.57-4.5-3.72-4.5a2.25 2.25 0 000 4.5h3.72zm9.28 6v8.25a.25.25 0 01-.25.25h-7.5V12h7.75zm-9.25 8.5V12H3.5v8.25c0 .138.112.25.25.25h7.5zm10-10a.25.25 0 00.25-.25v-2.5a.25.25 0 00-.25-.25h-8.5v3h8.5zm-18.5 0h8.5v-3h-8.5a.25.25 0 00-.25.25v2.5c0 .138.112.25.25.25zm16-6.75A2.25 2.25 0 0116.5 6h-3.72c.287-3.493 2.57-4.5 3.72-4.5a2.25 2.25 0 012.25 2.25z"/>
        </g>
        <g id="link">
            <path fill-rule="evenodd" d="M7.775 3.275a.75.75 0 001.06 1.06l1.25-1.25a2 2 0 112.83 2.83l-2.5 2.5a2 2 0 01-2.83 0 .75.75 0 00-1.06 1.06 3.5 3.5 0 004.95 0l2.5-2.5a3.5 3.5 0 00-4.95-4.95l-1.25 1.25zm-4.69 9.64a2 2 0 010-2.83l2.5-2.5a2 2 0 012.83 0 .75.75 0 001.06-1.06 3.5 3.5 0 00-4.95 0l-2.5 2.5a3.5 3.5 0 004.95 4.95l1.25-1.25a.75.75 0 00-1.06-1.06l-1.25 1.25a2 2 0 01-2.83 0z"/>
        </g>
        <g id="calendar">
            <path fill-rule="evenodd" d="M4.75 0a.75.75 0 01.75.75V2h5V.75a.75.75 0 011.5 0V2h1.25c.966 0 1.75.784 1.75 1.75v10.5A1.75 1.75 0 0113.25 16H2.75A1.75 1.75 0 011 14.25V3.75C1 2.784 1.784 2 2.75 2H4V.75A.75.75 0 014.75 0zm0 3.5h8.5a.25.25 0 01.25.25V6h-11V3.75a.25.25 0 01.25-.25h2zm-2.25 4v6.75c0 .138.112.25.25.25h10.5a.25.25 0 00.25-.25V7.5h-11z"/>
        </g>
        <g id="message">
            <path fill-rule="evenodd" d="M2.75 2.5a.25.25 0 00-.25.25v7.5c0 .138.112.25.25.25h2a.75.75 0 01.75.75v2.19l2.72-2.72a.75.75 0 01.53-.22h4.5a.25.25 0 00.25-.25v-7.5a.25.25 0 00-.25-.25H2.75zM1 2.75C1 1.784 1.784 1 2.75 1h10.5c.966 0 1.75.784 1.75 1.75v7.5A1.75 1.75 0 0113.25 12H9.06l-2.573 2.573A1.457 1.457 0 014 13.543V12H2.75A1.75 1.75 0 011 10.25v-7.5z"/>
        </g>
        <g id="share">
            <path fill-rule="evenodd" d="M7.823.177L4.927 3.073a.25.25 0 00.177.427H7.25v5.75a.75.75 0 001.5 0V3.5h2.146a.25.25 0 00.177-.427L8.177.177a.25.25 0 00-.354 0zM3.75 6.5a.25.25 0 00-.25.25v6.5c0 .138.112.25.25.25h8.5a.25.25 0 00.25-.25v-6.5a.25.25 0 00-.25-.25h-1a.75.75 0 010-1.5h1c.966 0 1.75.784 1.75 1.75v6.5A1.75 1.75 0 0112.25 15h-8.5A1.75 1.75 0 012 13.25v-6.5C2 5.784 2.784 5 3.75 5h1a.75.75 0 110 1.5h-1z"/>
        </g>
        <g id="person-circle">
            <path d="m437.019531 74.980469c-48.351562-48.351563-112.640625-74.980469-181.019531-74.980469-68.382812 0-132.667969 26.628906-181.019531 74.980469-48.351563 48.351562-74.980469 112.636719-74.980469 181.019531 0 68.378906 26.628906 132.667969 74.980469 181.019531 48.351562 48.351563 112.636719 74.980469 181.019531 74.980469 68.378906 0 132.667969-26.628906 181.019531-74.980469 48.351563-48.351562 74.980469-112.640625 74.980469-181.019531 0-68.382812-26.628906-132.667969-74.980469-181.019531zm-308.679687 367.40625c10.707031-61.648438 64.128906-107.121094 127.660156-107.121094 63.535156 0 116.953125 45.472656 127.660156 107.121094-36.347656 24.972656-80.324218 39.613281-127.660156 39.613281s-91.3125-14.640625-127.660156-39.613281zm46.261718-218.519531c0-44.886719 36.515626-81.398438 81.398438-81.398438s81.398438 36.515625 81.398438 81.398438c0 44.882812-36.515626 81.398437-81.398438 81.398437s-81.398438-36.515625-81.398438-81.398437zm235.042969 197.710937c-8.074219-28.699219-24.109375-54.738281-46.585937-75.078125-13.789063-12.480469-29.484375-22.328125-46.359375-29.269531 30.5-19.894531 50.703125-54.3125 50.703125-93.363281 0-61.425782-49.976563-111.398438-111.402344-111.398438s-111.398438 49.972656-111.398438 111.398438c0 39.050781 20.203126 73.46875 50.699219 93.363281-16.871093 6.941406-32.570312 16.785156-46.359375 29.265625-22.472656 20.339844-38.511718 46.378906-46.585937 75.078125-44.472657-41.300781-72.355469-100.238281-72.355469-165.574219 0-124.617188 101.382812-226 226-226s226 101.382812 226 226c0 65.339844-27.882812 124.277344-72.355469 165.578125zm0 0"/>
        </g>
        <g id="caret-down">
            <path fill="currentColor" fill-rule="evenodd" d="M5.22 8.72a.75.75 0 000 1.06l6.25 6.25a.75.75 0 001.06 0l6.25-6.25a.75.75 0 00-1.06-1.06L12 14.44 6.28 8.72a.75.75 0 00-1.06 0z"/>
        </g>
    </defs>
</svg>