<svg display="none">
    <defs>
        <g id="more">
            <path d="m64 192c-34 0-64 30-64 64 0 34 30 64 64 64 34 0 64-30 64-64 0-34-30-64-64-64z m384 0c-34 0-64 30-64 64 0 34 30 64 64 64 34 0 64-30 64-64 0-34-30-64-64-64z m-192 0c-34 0-64 30-64 64 0 34 30 64 64 64 34 0 64-30 64-64 0-34-30-64-64-64z"/>
        </g>
        <g id="facebook">
            <path d="m292 503l0-226 77 0 13-89-85 0 0-56c0-25 8-42 42-42l47 0 0-77c-13 0-38-4-72-4-64 0-111 42-111 115l0 64-77 0 0 89 77 0 0 226z"/>
        </g>
        <g id="twitter">
            <path d="m510 91c-18 7-40 14-58 18 22-14 40-36 47-62-22 15-44 22-65 26-18-22-47-36-76-36-62 3-109 54-109 112 0 7
            0 18 3 25-83-3-163-47-214-116-10 18-14 37-14 58 0 37 18 69 47 91-18 0-33-7-47-14 0 50 33 94 83 108-11 4-18
            4-29 4-7 0-14 0-18-4 11 47 51 77 98 80-36 29-83 47-130 47-8 0-19 0-26-3 47 32 102 50 160 50 192 0 297-166
            297-311 0-4 0-11 0-15 18-18 36-36 51-58z"/>
        </g>
        <g id="up">
            <path d="m496 341l-189-225c-31-27-63-27-94 0l-197 225c-16 15-12 43 4 55 15 16 39 12 55-4l185-209 177 209c16 16 40 20 55 4 20-12 20-40 4-55z"/>
        </g>
        <g id="down">
            <path d="m492 108c-15-15-43-12-55 4l-177 213-185-209c-16-16-40-20-55-4-16 12-20 40-4 55l197 225c31 31 63 27 94 0l189-225c16-15 16-43-4-59z"/>
        </g>
        <g id="favorite">
            <path d="m494 185c0 4-3 9-8 14l-103 101 24 143c0 1 0 3 0 5 0 4-1 8-3 10-2 3-4 5-8 5-4 0-8-2-12-4l-128-67-128 67c-4 2-8 4-12 4-4 0-7-2-9-5-2-2-3-6-3-10 0-1 0-3 1-5l24-143-104-101c-4-6-7-10-7-14 0-7 6-12 16-13l144-21 64-130c4-8 8-12 14-12 6 0 10 4 14 12l64 130 144 21c10 1 16 6 16 13z"/>
        </g>
    </defs>
</svg>