<?xml version="1.0" encoding="utf-8"?>
<!-- Svg Vector Icons : http://www.onlinewebfonts.com/icon -->
<!DOCTYPE svg PUBLIC "-//W3C//DTD SVG 1.1//EN" "http://www.w3.org/Graphics/SVG/1.1/DTD/svg11.dtd">
<svg version="1.1" xmlns="http://www.w3.org/2000/svg" xmlns:xlink="http://www.w3.org/1999/xlink" x="0px" y="0px" viewBox="0 0 1000 1000" enable-background="new 0 0 1000 1000" xml:space="preserve">
<metadata> Svg Vector Icons : http://www.onlinewebfonts.com/icon </metadata>
<g><g id="_x35_151e0c8492e5103c096af88a51f62ed"><path d="M625.4,10H465.1v244.3c-23.9-6.2-43.7-8.3-69.7-8.3c-167.5,0-275.7,106.1-275.7,269.5c0,169.6,102,258.1,297.6,258.1c65.5,0,125.9-6.2,208.1-21.8L625.4,10L625.4,10z M465.1,640.4c-22.9,3.1-37.5,4.1-55.1,4.1c-82.2,0-127-46.8-127-132.1C283,425,329.9,375,411,375c19.8,0,35.4,2.1,54.1,8.3V640.4z M880.3,10.9v164.4H720.1V10.9H880.3z M720.1,257.5h160.2v371.5c0,128-9.4,189.4-37.5,242.4c-26,51-60.3,83.2-131.1,118.6l-148.8-70.8c70.7-33.3,105.1-62.4,127-107.2c22.9-45.8,30.2-98.9,30.2-238.3V257.5L720.1,257.5z"/></g></g>
</svg>